<svg width="28" height="25" viewBox="0 0 28 25" fill="none" xmlns="http://www.w3.org/2000/svg">
<path d="M26.985 5.62498C26.7474 5.21333 26.4072 4.87029 25.9975 4.62931C25.5879 4.38833 25.1227 4.25763 24.6475 4.24998H7.0475L6.25 1.14248C6.16942 0.84251 5.98966 0.578655 5.73998 0.393894C5.4903 0.209132 5.18542 0.114349 4.875 0.124982H2.125C1.76033 0.124982 1.41059 0.269848 1.15273 0.527711C0.894866 0.785573 0.75 1.13531 0.75 1.49998C0.75 1.86466 0.894866 2.21439 1.15273 2.47225C1.41059 2.73012 1.76033 2.87498 2.125 2.87498H3.83L7.625 16.9825C7.70558 17.2825 7.88534 17.5463 8.13502 17.7311C8.3847 17.9158 8.68958 18.0106 9 18H21.375C21.6289 17.9992 21.8777 17.9281 22.0937 17.7947C22.3097 17.6612 22.4845 17.4705 22.5987 17.2437L27.1088 8.22373C27.3042 7.814 27.3952 7.36225 27.3736 6.9088C27.352 6.45534 27.2185 6.01428 26.985 5.62498V5.62498ZM20.5225 15.25H10.045L7.80375 6.99998H24.6475L20.5225 15.25Z" fill="#231F20"/>
<path d="M8.3125 24.875C9.45159 24.875 10.375 23.9516 10.375 22.8125C10.375 21.6734 9.45159 20.75 8.3125 20.75C7.17341 20.75 6.25 21.6734 6.25 22.8125C6.25 23.9516 7.17341 24.875 8.3125 24.875Z" fill="#231F20"/>
<path d="M22.0625 24.875C23.2016 24.875 24.125 23.9516 24.125 22.8125C24.125 21.6734 23.2016 20.75 22.0625 20.75C20.9234 20.75 20 21.6734 20 22.8125C20 23.9516 20.9234 24.875 22.0625 24.875Z" fill="#231F20"/>
</svg>
