<svg width="15" height="15" viewBox="0 0 15 15" fill="none" xmlns="http://www.w3.org/2000/svg">
<path d="M7.37894 1.22983C6.16276 1.22983 4.97389 1.59047 3.96267 2.26614C2.95146 2.94182 2.16331 3.90218 1.6979 5.02578C1.23248 6.14939 1.11071 7.38577 1.34798 8.57858C1.58524 9.77139 2.17089 10.8671 3.03086 11.727C3.89083 12.587 4.9865 13.1726 6.17931 13.4099C7.37212 13.6472 8.6085 13.5254 9.73211 13.06C10.8557 12.5946 11.8161 11.8064 12.4917 10.7952C13.1674 9.784 13.5281 8.59513 13.5281 7.37895C13.5281 6.57143 13.369 5.77183 13.06 5.02578C12.751 4.27974 12.298 3.60186 11.727 3.03086C11.156 2.45986 10.4782 2.00692 9.73211 1.6979C8.98606 1.38888 8.18646 1.22983 7.37894 1.22983ZM7.37894 12.2982C6.406 12.2982 5.4549 12.0097 4.64593 11.4692C3.83695 10.9287 3.20644 10.1604 2.83411 9.26148C2.46178 8.3626 2.36436 7.37349 2.55417 6.41924C2.74398 5.46499 3.2125 4.58846 3.90048 3.90048C4.58845 3.2125 5.46499 2.74399 6.41924 2.55417C7.37349 2.36436 8.36259 2.46178 9.26147 2.83411C10.1604 3.20644 10.9286 3.83696 11.4692 4.64593C12.0097 5.45491 12.2982 6.406 12.2982 7.37895C12.2982 8.68363 11.78 9.93487 10.8574 10.8574C9.93486 11.78 8.68362 12.2982 7.37894 12.2982Z" fill="white"/>
<path d="M9.22367 6.76403H7.99385V5.53421C7.99385 5.37112 7.92906 5.21472 7.81374 5.0994C7.69843 4.98408 7.54202 4.9193 7.37894 4.9193C7.21585 4.9193 7.05945 4.98408 6.94413 5.0994C6.82881 5.21472 6.76402 5.37112 6.76402 5.53421V6.76403H5.5342C5.37112 6.76403 5.21471 6.82882 5.09939 6.94414C4.98407 7.05945 4.91929 7.21586 4.91929 7.37894C4.91929 7.54203 4.98407 7.69843 5.09939 7.81375C5.21471 7.92907 5.37112 7.99386 5.5342 7.99386H6.76402V9.22368C6.76402 9.38676 6.82881 9.54317 6.94413 9.65849C7.05945 9.77381 7.21585 9.83859 7.37894 9.83859C7.54202 9.83859 7.69843 9.77381 7.81374 9.65849C7.92906 9.54317 7.99385 9.38676 7.99385 9.22368V7.99386H9.22367C9.38676 7.99386 9.54316 7.92907 9.65848 7.81375C9.7738 7.69843 9.83858 7.54203 9.83858 7.37894C9.83858 7.21586 9.7738 7.05945 9.65848 6.94414C9.54316 6.82882 9.38676 6.76403 9.22367 6.76403Z" fill="white"/>
</svg>
