<svg width="18" height="18" viewBox="0 0 18 18" fill="none" xmlns="http://www.w3.org/2000/svg">
<path d="M10.0575 9.00002L13.2825 5.78252C13.4237 5.64129 13.5031 5.44974 13.5031 5.25002C13.5031 5.05029 13.4237 4.85874 13.2825 4.71752C13.1413 4.57629 12.9497 4.49695 12.75 4.49695C12.5503 4.49695 12.3587 4.57629 12.2175 4.71752L9 7.94252L5.7825 4.71752C5.64127 4.57629 5.44973 4.49695 5.25 4.49695C5.05027 4.49695 4.85873 4.57629 4.7175 4.71752C4.57627 4.85874 4.49693 5.05029 4.49693 5.25002C4.49693 5.44974 4.57627 5.64129 4.7175 5.78252L7.9425 9.00002L4.7175 12.2175C4.6472 12.2872 4.59141 12.3702 4.55333 12.4616C4.51526 12.553 4.49565 12.651 4.49565 12.75C4.49565 12.849 4.51526 12.9471 4.55333 13.0384C4.59141 13.1298 4.6472 13.2128 4.7175 13.2825C4.78722 13.3528 4.87017 13.4086 4.96157 13.4467C5.05296 13.4848 5.15099 13.5044 5.25 13.5044C5.34901 13.5044 5.44704 13.4848 5.53843 13.4467C5.62983 13.4086 5.71278 13.3528 5.7825 13.2825L9 10.0575L12.2175 13.2825C12.2872 13.3528 12.3702 13.4086 12.4616 13.4467C12.553 13.4848 12.651 13.5044 12.75 13.5044C12.849 13.5044 12.947 13.4848 13.0384 13.4467C13.1298 13.4086 13.2128 13.3528 13.2825 13.2825C13.3528 13.2128 13.4086 13.1298 13.4467 13.0384C13.4847 12.9471 13.5043 12.849 13.5043 12.75C13.5043 12.651 13.4847 12.553 13.4467 12.4616C13.4086 12.3702 13.3528 12.2872 13.2825 12.2175L10.0575 9.00002Z" fill="white"/>
</svg>
